<svg xmlns="http://www.w3.org/2000/svg" viewBox="0 0 327.46 322.58"><g id="Layer_2" data-name="Layer 2"><g id="Layer_1-2" data-name="Layer 1"><path d="M143.67,206.47l-63.19-63.2L181.81,41.94,302.2,162.34l-25.07,25.07L181.81,92.08l-51.2,51.19,38.13,38.13Zm-51.19-63.2,51.19,51.19,13.07-13.06L118.6,143.27l63.21-63.2,95.32,95.33,13.06-13.06L181.81,54Z"/><path d="M162.74,301.8l-25.07-25.07L233,181.4l-51.18-51.19-38.14,38.13L118.6,143.27l63.21-63.2L283.13,181.4Zm-13.06-25.07,13.06,13.06L271.13,181.4,181.81,92.08l-51.2,51.19,13.06,13.06,38.14-38.13L245,181.4Z"/><path d="M143.67,282.73,23.28,162.34l25.07-25.08,95.32,95.33,51.2-51.19-38.14-38.13,25.08-25.07L245,181.4ZM35.29,162.34,143.67,270.72,233,181.4l-51.18-51.19-13.06,13.06,38.13,38.13-63.21,63.2L48.35,149.28Z"/><path d="M143.67,244.6,42.34,143.27l120.4-120.4L187.81,48,92.48,143.27l51.19,51.19,38.14-38.13,25.07,25.07ZM54.35,143.27l89.32,89.32,51.2-51.19-13.06-13.06-38.14,38.13-63.19-63.2L175.8,48,162.74,34.89Z"/><path d="M281.1,209.23a46.36,46.36,0,1,1,46.36-46.35A46.4,46.4,0,0,1,281.1,209.23Zm0-84.2A37.85,37.85,0,1,0,319,162.88,37.89,37.89,0,0,0,281.1,125Z"/><path d="M46.35,210.23a46.36,46.36,0,1,1,46.36-46.35A46.4,46.4,0,0,1,46.35,210.23Zm0-84.2a37.85,37.85,0,1,0,37.86,37.85A37.89,37.89,0,0,0,46.35,126Z"/><path d="M164.58,322.58a46.36,46.36,0,1,1,46.36-46.35A46.4,46.4,0,0,1,164.58,322.58Zm0-84.2a37.85,37.85,0,1,0,37.85,37.85A37.89,37.89,0,0,0,164.58,238.38Z"/><path d="M164.58,92.71a46.36,46.36,0,1,1,46.36-46.36A46.41,46.41,0,0,1,164.58,92.71Zm0-84.21a37.86,37.86,0,1,0,37.85,37.85A37.89,37.89,0,0,0,164.58,8.5Z"/></g></g></svg>