<svg xmlns="http://www.w3.org/2000/svg" viewBox="0 0 356.2 356.2"><defs><style>.cls-1{fill:#000;}</style></defs><g id="Layer_2" data-name="Layer 2"><g id="Layer_1-2" data-name="Layer 1"><path class="cls-1" d="M306.84,128.74A49.15,49.15,0,0,0,280,136.69L219.5,76.18a49.35,49.35,0,1,0-83.08-.42L75.76,136.42a49.37,49.37,0,1,0,.42,83.08L136.69,280a49.36,49.36,0,1,0,82.54-.42l60.36-60.36a49.35,49.35,0,1,0,27.25-90.49ZM72.49,215.82a44.26,44.26,0,1,1-.42-75.71L34.43,177.75ZM262.57,178.1a44.45,44.45,0,0,1,1.25-10.48l30.09,30.09-14.83,14.83A44,44,0,0,1,262.57,178.1ZM58,161.39l32.66,32.66a44.4,44.4,0,0,1-13.92,18.8l-35.1-35.1ZM177.75,313.87l-16.36-16.36,32.16-32.16a44.29,44.29,0,0,1,19,13.73Zm0-272.24L194.11,58,161.65,90.45A44.36,44.36,0,0,1,143,76.34ZM161.39,177.75l16.36-16.36,16.36,16.36-16.36,16.36Zm-27-20.15-.19.19,39.92,39.92-16.36,16.36-55.45-55.45a1.16,1.16,0,0,1,0-1.66L163,96.33a49.33,49.33,0,0,0,34.13-1.4Zm43.68-64a44.12,44.12,0,0,1-11-1.4l30.64-30.64,15.14,15.14A44,44,0,0,1,178.1,93.63ZM157.6,221.08l.19.19,39.92-39.92,16.36,16.36-55.45,55.45a1.21,1.21,0,0,1-1.66,0L96.51,192.71a49.45,49.45,0,0,0-2.11-34.83Zm20.5,41.49a44.22,44.22,0,0,1,9.9,1.13l-30.21,30.21-14.45-14.44A44,44,0,0,1,178.1,262.57ZM198,94.56a49.55,49.55,0,0,0,18.51-14.21l59.38,59.37a49.75,49.75,0,0,0-14.2,18.53ZM94.35,157.75A49.59,49.59,0,0,0,80,139.41L139.41,80a49.65,49.65,0,0,0,18.37,14.36Zm.19,40.19,63.25,63.25,63.29-63.29.19-.19-39.92-39.92,16.36-16.36L254,197.71l-61.82,61.82a49.29,49.29,0,0,0-52.45,16.32L80.35,216.47A49.67,49.67,0,0,0,94.54,197.94Zm166.46,0,.19-.19-63.48-63.48-39.92,39.92-16.36-16.36,56.28-56.28,62,62a49.3,49.3,0,0,0,15.77,52.67l-59.3,59.3a49.64,49.64,0,0,0-18.7-14ZM215.82,72.49,177.75,34.43,140.11,72.07a44.28,44.28,0,1,1,75.71.42ZM93.63,178.1a43.92,43.92,0,0,1-1.26,10.47L61.59,157.79,76.34,143A44,44,0,0,1,93.63,178.1Zm46.75,105.6,37.37,37.37,37.8-37.8a44.27,44.27,0,1,1-75.17.43Zm157.13-89.59-32-32a44.43,44.43,0,0,1,13.92-18.81l34.4,34.41Zm23.56-16.36L283.7,140.38a44.27,44.27,0,1,1-.43,75.17Z"/></g></g></svg>