<svg xmlns="http://www.w3.org/2000/svg" viewBox="0 0 686.48 105.4"><defs><style>.cls-1{fill:#fff;}</style></defs><g id="Layer_2" data-name="Layer 2"><g id="Layer_1-2" data-name="Layer 1"><path class="cls-1" d="M0,0,.35,1.35A16.07,16.07,0,0,1,.87,5.43v100H62.21V98.14h0a15.45,15.45,0,0,1-7.15,1.75H9.15V5.43a16.08,16.08,0,0,1,.53-4.08L10,0Z"/><path class="cls-1" d="M365.65,105.4h11.19a47.11,47.11,0,0,1-5.41-6L330.81,46l36-40.43a47.18,47.18,0,0,1,4.33-4.27L372.68,0H361a18.51,18.51,0,0,1-3.57,5.91L308.25,60.65V5.73A18.77,18.77,0,0,1,308.87,1l.26-.95h-10l.25.94a18.53,18.53,0,0,1,.63,4.79v94a18.62,18.62,0,0,1-.88,5.64h10a18.31,18.31,0,0,1-.88-5.64V69.52l17.26-17.93,37.09,48.66a25.69,25.69,0,0,1,3,5.15Z"/><path class="cls-1" d="M519.7,105.4h10.57a34.74,34.74,0,0,1-4.17-6L503.45,58.52,507,57.17a30.61,30.61,0,0,0,14.24-10.48,26.69,26.69,0,0,0,5-16.29c0-10-3-17.43-9-22.56S502,0,490.23,0H453a26.17,26.17,0,0,1,.87,6.71v93.93a10.51,10.51,0,0,1-.88,4.76h10a11.83,11.83,0,0,1-.87-4.88V60.11h34.16l21.49,40.05a20,20,0,0,1,1.94,5.24ZM462.11,54.6v-49h28.12a38.44,38.44,0,0,1,12,1.7,23.53,23.53,0,0,1,8.83,5.12,20.55,20.55,0,0,1,5.25,8.08A29.3,29.3,0,0,1,518,30.4a25.43,25.43,0,0,1-1.73,9.39,21.29,21.29,0,0,1-5.31,7.81,25.28,25.28,0,0,1-8.6,5.14A33.86,33.86,0,0,1,490.7,54.6Z"/><path class="cls-1" d="M666.83,76.18l8.73,23.88a18.06,18.06,0,0,1,1.08,5.34h9.84a27.07,27.07,0,0,1-3.13-5.89L647.73,6.4A26.17,26.17,0,0,1,646.16,0h-9.28l-38,99.51a27.92,27.92,0,0,1-3.12,5.89h9.9a18,18,0,0,1,1.05-5.34l8.61-23.88ZM641.07,5.34l23.77,65.25H617.41Z"/><path class="cls-1" d="M203,76.18l8.75,23.9a18.1,18.1,0,0,1,1.07,5.3v0h9.83a27.5,27.5,0,0,1-3.13-5.89L183.93,6.4A27.11,27.11,0,0,1,182.36,0h-9.28l-38,99.52a27,27,0,0,1-3.11,5.87h9.9a17.71,17.71,0,0,1,1-5.34l8.61-23.88ZM177.28,5.34,201,70.59H153.61Z"/></g></g></svg>