<svg xmlns="http://www.w3.org/2000/svg" width="77.5833" height="94.6196" viewBox="0 0 77.5833 94.6196"><defs><style>.a{fill:#707267;}</style></defs><path class="a" d="M38.8743,94.62h0a127.9935,127.9935,0,0,1-19.3531-16.667A86.7078,86.7078,0,0,1,6.2151,60.1445C2.2019,52.7876.1672,45.5747.1672,38.7075a38.7215,38.7215,0,0,1,74.374-15.0659,38.4694,38.4694,0,0,1,3.042,15.0659c0,6.8672-2.0351,14.08-6.0478,21.437A86.6911,86.6911,0,0,1,58.2292,77.9526,127.9976,127.9976,0,0,1,38.8762,94.62Zm.6362-68.5371a10.5306,10.5306,0,0,0-8.0269,3.88,14.8533,14.8533,0,0,0,0,18.7344,10.2468,10.2468,0,0,0,16.0557,0,14.8565,14.8565,0,0,0,0-18.7344A10.5312,10.5312,0,0,0,39.5105,26.0825Z"/></svg>